# Blender 5.2.0 LTS
# www.blender.org
mtllib broadleaf_01.mtl
o Cube
v 0.125877 -0.001248 0.238142
v 0.107780 0.382752 0.183882
v 0.125877 -0.001248 -0.235986
v 0.107780 0.382752 -0.181726
v 0.342608 -0.001248 0.238142
v 0.361750 0.382752 0.183882
v 0.342608 -0.001248 -0.235986
v 0.361750 0.382752 -0.181726
v 0.000000 -0.001248 0.001078
v -0.039725 0.382752 0.001078
v 0.450235 -0.001248 0.001078
v 0.487869 0.382752 0.001078
v 0.121798 1.113199 0.361533
v 0.121798 1.113199 0.037452
v 0.346922 1.113199 0.361533
v 0.346922 1.113199 0.037452
v -0.008952 1.113199 0.199493
v 0.458716 1.113199 0.199493
v 0.147865 1.871738 -0.008937
v 0.147865 1.871738 -0.255801
v 0.319349 1.871738 -0.008937
v 0.319349 1.871738 -0.255801
v 0.048268 1.871738 -0.132369
v 0.404507 1.871738 -0.132369
v 0.157838 2.286666 -0.007983
v 0.157838 2.286666 -0.256754
v 0.308801 2.286666 -0.007983
v 0.308801 2.286666 -0.256754
v 0.070159 2.286666 -0.132369
v 0.383768 2.286666 -0.132369
v 0.213494 2.651889 0.106880
v 0.248252 2.651889 0.106880
v 0.193307 2.651889 0.044245
v 0.265512 2.651889 0.044245
v 0.144084 2.957469 0.213041
v 0.175551 2.957469 0.213041
v 0.125809 2.957469 0.161232
v 0.191177 2.957469 0.161232
v 0.170421 3.171891 0.173784
v 0.201887 3.171891 0.173784
v 0.152145 3.171891 0.121975
v 0.217513 3.171891 0.121975
v 0.206410 2.673245 -0.375404
v 0.319425 2.673245 -0.375404
v 0.140771 2.673245 -0.282286
v 0.375547 2.673245 -0.282286
v 0.255838 2.948477 -0.641366
v 0.368853 2.948477 -0.641366
v 0.190200 2.948477 -0.548247
v 0.424975 2.948477 -0.548247
v 0.287864 3.307283 -0.613818
v 0.334012 3.307283 -0.613818
v 0.261062 3.307283 -0.575795
v 0.356929 3.307283 -0.575795
v 0.168655 2.372760 -0.283178
v 0.311167 2.372760 -0.283178
v 0.381937 2.372760 -0.165756
v 0.085884 2.372760 -0.165756
v 0.191930 2.222293 -0.441002
v 0.277561 2.222293 -0.441002
v 0.278903 2.271128 -0.455990
v 0.198066 2.271128 -0.455990
v 0.213547 2.262723 -0.595425
v 0.299178 2.262723 -0.595425
v 0.300520 2.311558 -0.610414
v 0.219683 2.311558 -0.610414
v 0.222025 2.174585 -0.796387
v 0.291409 2.174585 -0.796387
v 0.292497 2.214154 -0.808531
v 0.226997 2.214154 -0.808531
v 0.323064 1.769537 0.040979
v 0.144353 1.769537 0.040979
v 0.144353 1.769537 -0.216289
v 0.323064 1.769537 -0.216289
v 0.040558 1.769537 -0.087655
v 0.411811 1.769537 -0.087655
v 0.290621 2.003307 0.322839
v 0.288254 2.068422 0.291036
v 0.178998 2.068422 0.291036
v 0.176760 2.003307 0.322839
v 0.246905 2.210524 0.434560
v 0.244538 2.275639 0.402758
v 0.135281 2.275639 0.402758
v 0.133044 2.210524 0.434560
v 0.209492 2.400788 0.494327
v 0.208240 2.435226 0.477508
v 0.150457 2.435226 0.477508
v 0.149274 2.400788 0.494327
v 0.522958 2.171798 0.118420
v 0.490577 2.171798 0.165354
v 0.515072 2.329571 0.118420
v 0.486566 2.329571 0.165717
v 0.702158 2.407223 0.211090
v 0.669778 2.407223 0.258024
v 0.625353 2.482865 0.210829
v 0.596847 2.482865 0.258125
v 0.757501 2.727301 0.171107
v 0.725120 2.727301 0.218041
v 0.692121 2.734635 0.168863
v 0.663616 2.734635 0.216160
v 0.745772 2.916811 0.192222
v 0.730792 2.916811 0.213933
v 0.715527 2.920204 0.191184
v 0.702340 2.920204 0.213063
v 0.155022 2.169529 -0.256485
v 0.063853 2.167145 -0.132369
v 0.070159 2.286666 -0.132369
v 0.157838 2.286666 -0.256754
v 0.063853 2.167145 -0.132369
v 0.155022 2.169529 -0.256485
v -0.172844 2.279457 -0.341354
v -0.117735 2.279457 -0.419535
v -0.176807 2.204334 -0.341354
v -0.119504 2.205832 -0.419365
v -0.172844 2.279457 -0.341354
v -0.117735 2.279457 -0.419535
v -0.176807 2.204334 -0.341354
v -0.119504 2.205832 -0.419365
v -0.255024 2.381987 -0.506677
v -0.199915 2.381987 -0.584858
v -0.258988 2.306864 -0.506677
v -0.201685 2.308362 -0.584689
v -0.308237 2.403699 -0.533406
v -0.253128 2.403699 -0.611587
v -0.312201 2.328576 -0.533406
v -0.254898 2.330074 -0.611418
v -0.265298 2.580655 -0.660103
v -0.228938 2.580655 -0.711684
v -0.300406 2.594980 -0.677737
v -0.264047 2.594980 -0.729319
v -0.468490 2.395916 -0.676132
v -0.439535 2.395916 -0.717209
v -0.470572 2.356446 -0.676132
v -0.440464 2.357233 -0.717120
v 0.284430 3.692086 -0.584879
v 0.298426 3.692086 -0.604734
v 0.322522 3.692086 -0.604734
v 0.334488 3.692086 -0.584879
v 0.217513 3.171891 0.121975
v 0.201887 3.171891 0.173784
v 0.170421 3.171891 0.173784
v 0.152145 3.171891 0.121975
v 0.245306 3.670608 0.039730
v 0.238458 3.670608 0.062435
v 0.224668 3.670608 0.062435
v 0.216659 3.670608 0.039730
v 0.122964 3.039388 0.195050
v 0.114252 3.039388 0.170352
v 0.135519 3.141607 0.176336
v 0.126807 3.141607 0.151638
v 0.122964 3.039388 0.195050
v 0.114252 3.039388 0.170352
v 0.135519 3.141607 0.176336
v 0.126807 3.141607 0.151638
v 0.087440 3.077029 0.194062
v 0.081687 3.077029 0.177752
v 0.095731 3.144530 0.181703
v 0.089978 3.144530 0.165394
v 0.041263 3.464561 0.247411
v 0.035704 3.464561 0.231652
v 0.023535 3.463740 0.245120
v 0.019864 3.463740 0.234714
v -0.246752 3.341822 0.359912
v -0.248905 3.341822 0.353809
v -0.243649 3.367081 0.355287
v -0.245802 3.367081 0.349184
v 0.406696 1.832133 -0.286567
v 0.469830 1.832133 -0.195057
v 0.475245 1.756363 -0.161908
v 0.409450 1.756363 -0.257274
v 0.406696 1.832133 -0.286567
v 0.469830 1.832133 -0.195057
v 0.475245 1.756363 -0.161908
v 0.409450 1.756363 -0.257274
v 0.619886 2.017043 -0.430120
v 0.651774 2.017043 -0.383900
v 0.654509 1.978773 -0.367157
v 0.621277 1.978773 -0.415325
v 0.718555 2.221774 -0.537704
v 0.739857 2.221774 -0.506828
v 0.741684 2.196208 -0.495643
v 0.719484 2.196208 -0.527820
v 0.239965 2.127857 -0.920988
v 0.274970 2.127857 -0.920988
v 0.275519 2.147820 -0.927115
v 0.242473 2.147820 -0.927115
v -0.249354 2.842355 -0.739122
v -0.226310 2.842355 -0.771813
v -0.271606 2.851434 -0.750298
v -0.248562 2.851434 -0.782990
v -0.468490 2.395916 -0.676132
v -0.439535 2.395916 -0.717209
v -0.470572 2.356446 -0.676132
v -0.440464 2.357233 -0.717120
v 0.000000 0.001248 -0.001078
v 0.131659 1.400138 0.221392
v 0.012274 1.394593 0.076382
v 0.127411 1.276512 0.281771
v 0.002551 1.265699 0.132774
v 0.000000 -0.001248 0.001078
v 0.000000 0.001248 -0.001078
v 0.131659 1.400138 0.221392
v 0.012274 1.394593 0.076382
v 0.127411 1.276512 0.281771
v 0.002551 1.265699 0.132774
v -0.086336 1.454870 0.284896
v -0.019611 1.457968 0.365944
v -0.021985 1.388872 0.399690
v -0.091771 1.382829 0.316414
v -0.088616 1.549461 0.410361
v -0.058390 1.550865 0.447076
v -0.059465 1.519564 0.462363
v -0.091078 1.516827 0.424639
vn -0.8378 -0.0245 -0.5455
vn -0.0000 0.1399 -0.9902
vn 0.8733 -0.0302 0.4862
vn -0.0000 0.1399 0.9902
vn -0.0000 -1.0000 -0.0000
vn 0.8091 0.1839 -0.5582
vn 0.8171 -0.1205 0.5637
vn 0.8733 -0.0302 -0.4862
vn -0.8378 -0.0245 0.5455
vn -0.0000 -0.3606 -0.9327
vn -0.0000 -0.7697 0.6384
vn -0.7710 -0.1365 0.6221
vn -0.7626 0.1993 -0.6154
vn -0.0000 -0.2363 0.9717
vn -0.0000 0.2874 -0.9578
vn -0.7919 0.0297 -0.6100
vn 0.6429 -0.6245 0.4435
vn -0.7383 0.3163 0.5957
vn 0.7868 0.2937 0.5428
vn -0.7607 -0.2112 -0.6138
vn 0.7494 0.3096 0.5853
vn -0.0000 0.4353 -0.9003
vn -0.0000 -0.2934 -0.9560
vn 0.8395 0.0310 -0.5424
vn -0.0000 -0.0023 1.0000
vn -0.0000 -0.0023 -1.0000
vn -0.7975 0.0299 0.6026
vn -0.9005 -0.3122 0.3026
vn -0.8662 0.0127 0.4996
vn 0.8960 0.0430 0.4419
vn -0.0000 -0.3000 0.9539
vn -0.0000 -0.1801 -0.9836
vn 0.9530 0.1293 0.2739
vn -0.0000 0.3575 -0.9339
vn -0.0000 -0.3282 0.9446
vn -0.0000 1.0000 -0.0000
vn -0.0000 0.1801 0.9836
vn -0.7443 -0.0307 -0.6672
vn 0.9554 -0.0646 0.2882
vn -0.7563 -0.3793 -0.5331
vn -0.0000 0.3616 0.9323
vn -0.8151 -0.0739 -0.5746
vn 0.8426 -0.1790 -0.5079
vn -0.0000 0.0766 0.9971
vn -0.0000 0.6949 0.7191
vn -0.0000 -0.6949 -0.7191
vn 0.7172 -0.5465 -0.4323
vn 0.8559 0.0377 -0.5158
vn -0.0000 0.0766 -0.9971
vn 0.8501 0.1219 -0.5123
vn -0.8118 0.1164 -0.5722
vn -0.0000 -0.9440 0.3298
vn 0.9896 0.0167 0.1429
vn -0.0000 0.8620 -0.5069
vn 0.9872 -0.0709 -0.1426
vn -0.9775 0.0608 -0.2021
vn -0.9915 0.0985 -0.0850
vn -0.9894 0.0889 -0.1152
vn -0.0000 -0.9674 -0.2533
vn -0.0000 0.9674 0.2533
vn -0.0000 0.8727 -0.4882
vn -0.0000 -0.9158 0.4017
vn -0.0000 0.8974 -0.4412
vn 0.9991 -0.0346 -0.0234
vn 0.8087 -0.1863 -0.5579
vn -0.0000 0.4389 0.8986
vn -0.0000 -0.4746 0.8802
vn 0.9960 0.0656 0.0602
vn -0.0000 0.8363 -0.5483
vn -0.9961 0.0642 0.0613
vn -0.0000 0.4242 -0.9056
vn -0.0000 0.4746 -0.8802
vn -0.9696 -0.0797 -0.2315
vn 0.9791 0.1169 0.1664
vn -0.9959 0.0651 0.0632
vn 0.9723 0.1302 0.1942
vn -0.0000 -0.2997 0.9540
vn -0.4001 -0.1337 0.9067
vn -0.1496 0.9846 -0.0901
vn -0.6964 -0.0194 0.7174
vn 0.8819 0.0441 -0.4693
vn -0.8481 0.1397 -0.5111
vn 0.3918 0.1411 -0.9092
vn -0.6280 0.6800 -0.3785
vn 0.6271 -0.6477 0.4327
vn -0.8443 0.1677 -0.5089
vn 0.8210 -0.0712 0.5664
vn 0.0658 0.1278 0.9896
vn -0.0581 -0.1294 -0.9899
vn 0.1122 0.9910 0.0725
vn 0.8230 -0.0123 0.5678
vn -0.0279 0.0225 0.9994
vn 0.0468 0.1135 -0.9924
vn -0.0836 -0.9932 -0.0805
vn -0.6522 0.0344 0.7572
vn 0.5088 -0.0142 -0.8608
vn -0.0185 0.9997 -0.0130
vn 0.4363 0.8456 0.3075
vn -0.2727 -0.9370 -0.2183
vn -0.4153 -0.8510 -0.3214
vn -0.8827 0.0466 0.4677
vn 0.8896 -0.0224 -0.4561
vn 0.4934 -0.0139 -0.8697
vn -0.4411 0.0233 0.8971
vn 0.4447 -0.0127 -0.8956
vn -0.1503 0.5994 0.7862
vn 0.8111 0.1232 0.5718
vn -0.7586 -0.3724 -0.5347
vn 0.2153 -0.5029 -0.8371
vn 0.7348 0.4380 0.5179
vn -0.0298 0.9993 -0.0210
vn -0.0947 -0.9916 -0.0886
vn -0.6656 0.0351 0.7455
vn -0.8168 0.0360 -0.5758
vn -0.0000 0.0236 0.9997
vn -0.0000 0.0236 -0.9997
vn -0.0000 -0.1627 -0.9867
vn -0.0000 0.2179 0.9760
vn -0.9286 0.1742 0.3276
vn 0.9574 -0.0057 0.2888
vn -0.6297 0.7444 0.2221
vn -0.0938 0.1904 0.9772
vn -0.9297 -0.1677 0.3280
vn 0.1436 0.1611 0.9764
vn -0.5238 -0.0907 -0.8470
vn -0.2957 0.1453 -0.9442
vn -0.3559 -0.1258 -0.9260
vn -0.7075 -0.6612 0.2496
vn -0.0485 0.9987 0.0171
vn 0.8905 0.3290 -0.3141
vn 0.0454 -0.1935 0.9801
vn -0.9083 -0.2691 0.3204
vn -0.9287 0.1740 0.3276
vn -0.5485 -0.8135 0.1935
vn 0.5023 0.0957 0.8594
vn 0.4786 0.8616 -0.1688
vn -0.1138 -0.9904 0.0785
vn 0.3335 0.9142 -0.2301
vn -0.4450 -0.3369 -0.8297
vn 0.5302 -0.7649 -0.3658
vn 0.6852 -0.5541 -0.4727
vn 0.4467 0.3852 0.8075
vn -0.2912 -0.3542 -0.8887
vn -0.4807 0.8117 0.3317
vn 0.2829 0.4013 0.8711
vn -0.2417 -0.3575 -0.9021
vn -0.6759 0.5708 0.4663
vn 0.9923 -0.0605 -0.1082
vn -0.9831 0.0718 -0.1685
vn -0.0000 -0.9363 0.3511
vn 0.2827 0.9383 0.1993
vn 0.3683 -0.2117 -0.9053
vn -0.8153 -0.0710 -0.5747
vn -0.3319 0.2911 0.8973
vn -0.8114 0.0306 -0.5837
vn -0.9104 -0.1063 -0.3998
vn -0.6593 -0.4704 0.5866
vn 0.1865 0.9638 -0.1904
vn -0.3594 -0.8594 0.3636
vn 0.7169 0.2859 0.6358
vn 0.9422 0.1203 0.3126
vn -0.9971 0.0506 -0.0563
vn 0.5647 0.6639 -0.4903
vt 0.375000 0.125000
vt 0.625000 0.125000
vt 0.625000 0.250000
vt 0.375000 0.250000
vt 0.625000 0.500000
vt 0.375000 0.500000
vt 0.375000 0.625000
vt 0.625000 0.625000
vt 0.625000 0.750000
vt 0.375000 0.750000
vt 0.625000 1.000000
vt 0.375000 1.000000
vt 0.125000 0.625000
vt 0.125000 0.750000
vt 0.125000 0.500000
vt 0.375000 0.000000
vt 0.625000 0.000000
vt 0.875000 0.625000
vt 0.625000 0.500000
vt 0.625000 0.250000
vt 0.875000 0.500000
vt 0.875000 0.750000
vt 0.000000 0.000000
s 0
f 9/1/1 10/2/1 4/3/1 3/4/1
f 3/4/2 4/3/2 8/5/2 7/6/2
f 11/7/3 12/8/3 6/9/3 5/10/3
f 5/10/4 6/9/4 2/11/4 1/12/4
f 9/13/5 11/7/5 5/10/5 1/14/5
f 12/8/6 8/5/6 16/5/6 18/8/6
f 6/9/7 12/8/7 18/8/7 15/9/7
f 3/15/5 7/6/5 11/7/5 9/13/5
f 7/6/8 8/5/8 12/8/8 11/7/8
f 1/16/9 2/17/9 10/2/9 9/1/9
f 74/5/10 73/3/10 20/3/10 22/5/10
f 72/11/11 71/9/11 77/9/11 80/11/11
f 10/2/12 2/17/12 13/17/12 17/2/12
f 4/3/13 10/2/13 17/2/13 14/3/13
f 2/11/14 6/9/14 15/9/14 13/11/14
f 8/5/15 4/3/15 14/3/15 16/5/15
f 20/3/16 23/2/16 106/2/16 105/3/16
f 21/9/17 24/8/17 89/8/17 90/9/17
f 75/2/18 72/17/18 19/17/18 23/2/18
f 71/9/19 76/8/19 24/8/19 21/9/19
f 73/3/20 75/2/20 23/2/20 20/3/20
f 24/8/21 76/8/21 169/8/21 168/8/21
f 30/8/22 29/18/22 33/18/22 34/8/22
f 56/19/23 55/20/23 43/3/23 44/5/23
f 24/8/24 22/5/24 28/5/24 30/8/24
f 19/11/25 21/9/25 27/9/25 25/11/25
f 22/5/26 20/3/26 105/3/26 26/3/26 28/5/26
f 23/2/27 19/17/27 25/17/27 29/2/27 106/2/27
f 33/2/28 31/17/28 35/17/28 37/2/28
f 29/2/29 25/17/29 31/17/29 33/2/29
f 27/9/30 30/8/30 34/8/30 32/9/30
f 25/11/31 27/9/31 32/9/31 31/11/31
f 38/8/32 37/18/32 41/18/32 42/8/32
f 32/9/33 34/8/33 38/8/33 36/9/33
f 34/8/34 33/18/34 37/18/34 38/8/34
f 31/11/35 32/9/35 36/9/35 35/11/35
f 41/2/36 39/17/36 141/17/36 142/2/36
f 35/11/37 36/9/37 40/9/37 39/11/37
f 41/18/38 37/18/38 148/18/38 150/18/38
f 36/9/39 38/8/39 42/8/39 40/9/39
f 43/3/40 45/2/40 49/2/40 47/3/40
f 58/18/41 57/8/41 46/8/41 45/18/41
f 55/20/42 58/2/42 45/2/42 43/3/42
f 57/8/43 56/19/43 44/5/43 46/8/43
f 49/18/44 50/8/44 54/8/44 53/18/44
f 45/18/45 46/8/45 50/8/45 49/18/45
f 44/5/46 43/3/46 47/3/46 48/5/46
f 46/8/47 44/5/47 48/5/47 50/8/47
f 54/8/48 52/5/48 137/5/48 138/8/48
f 48/5/49 47/3/49 51/3/49 52/5/49
f 50/8/50 48/5/50 52/5/50 54/8/50
f 47/3/51 49/2/51 53/2/51 51/3/51
f 30/8/43 28/5/43 56/19/43 57/8/43
f 26/3/42 29/2/42 58/2/42 55/20/42
f 29/18/41 30/8/41 57/8/41 58/18/41
f 28/5/52 26/3/52 59/3/52 60/5/52
f 61/19/53 60/5/53 64/5/53 65/19/53
f 55/20/54 56/19/54 61/19/54 62/20/54
f 56/19/55 28/5/55 60/5/55 61/19/55
f 26/3/56 55/20/56 62/20/56 59/3/56
f 63/3/57 66/20/57 70/20/57 67/3/57
f 59/3/58 62/20/58 66/20/58 63/3/58
f 60/5/59 59/3/59 63/3/59 64/5/59
f 62/20/60 61/19/60 65/19/60 66/20/60
f 70/20/61 69/19/61 185/19/61 186/20/61
f 64/5/62 63/3/62 67/3/62 68/5/62
f 66/20/63 65/19/63 69/19/63 70/20/63
f 65/19/64 64/5/64 68/5/64 69/19/64
f 18/8/65 16/5/65 74/5/65 76/8/65
f 14/3/20 17/2/20 199/2/20 197/2/20 75/2/20 73/3/20
f 15/9/19 18/8/19 76/8/19 71/9/19
f 17/2/18 13/17/18 198/17/18 199/2/18
f 13/11/66 15/9/66 71/9/66 72/11/66 196/11/66 198/11/66
f 16/5/10 14/3/10 73/3/10 74/5/10
f 80/11/67 77/9/67 81/9/67 84/11/67
f 71/9/68 21/9/68 78/9/68 77/9/68
f 21/9/69 19/11/69 79/11/69 78/9/69
f 19/17/70 72/17/70 80/17/70 79/17/70
f 82/9/71 83/11/71 87/11/71 86/9/71
f 78/9/72 79/11/72 83/11/72 82/9/72
f 79/17/73 80/17/73 84/17/73 83/17/73
f 77/9/74 78/9/74 82/9/74 81/9/74
f 88/11/66 85/9/66 86/9/66 87/11/66
f 83/17/75 84/17/75 88/17/75 87/17/75
f 81/9/76 82/9/76 86/9/76 85/9/76
f 84/11/77 81/9/77 85/9/77 88/11/77
f 92/9/78 90/9/78 94/9/78 96/9/78
f 30/8/79 27/9/79 92/9/79 91/8/79
f 27/9/80 21/9/80 90/9/80 92/9/80
f 24/8/81 30/8/81 91/8/81 89/8/81
f 95/8/82 96/9/82 100/9/82 99/8/82
f 89/8/83 91/8/83 95/8/83 93/8/83
f 91/8/84 92/9/84 96/9/84 95/8/84
f 90/9/85 89/8/85 93/8/85 94/9/85
f 99/8/86 100/9/86 104/9/86 103/8/86
f 94/9/87 93/8/87 97/8/87 98/9/87
f 96/9/88 94/9/88 98/9/88 100/9/88
f 93/8/89 95/8/89 99/8/89 97/8/89
f 102/9/90 101/8/90 103/8/90 104/9/90
f 98/9/91 97/8/91 101/8/91 102/9/91
f 100/9/92 98/9/92 102/9/92 104/9/92
f 97/8/93 99/8/93 103/8/93 101/8/93
f 110/3/94 109/2/94 113/2/94 114/3/94
f 106/2/36 29/2/36 107/2/36 109/2/36
f 105/3/36 106/2/36 109/2/36 110/3/36
f 26/3/36 105/3/36 110/3/36 108/3/36
f 29/2/36 26/3/36 108/3/36 107/2/36
f 112/3/36 114/3/36 118/3/36 116/3/36
f 109/2/95 107/2/95 111/2/95 113/2/95
f 108/3/96 110/3/96 114/3/96 112/3/96
f 107/2/97 108/3/97 112/3/97 111/2/97
f 115/2/98 116/3/98 120/3/98 119/2/98
f 111/2/36 112/3/36 116/3/36 115/2/36
f 114/3/36 113/2/36 117/2/36 118/3/36
f 113/2/36 111/2/36 115/2/36 117/2/36
f 122/3/99 121/2/99 125/2/99 126/3/99
f 118/3/100 117/2/100 121/2/100 122/3/100
f 117/2/101 115/2/101 119/2/101 121/2/101
f 116/3/102 118/3/102 122/3/102 120/3/102
f 124/3/103 126/3/103 134/3/103 132/3/103
f 121/2/104 119/2/104 123/2/104 125/2/104
f 120/3/105 122/3/105 126/3/105 124/3/105
f 123/2/106 119/2/106 127/2/106 129/2/106
f 127/2/107 128/3/107 188/3/107 187/2/107
f 124/3/108 123/2/108 129/2/108 130/3/108
f 120/3/109 124/3/109 130/3/109 128/3/109
f 119/2/110 120/3/110 128/3/110 127/2/110
f 134/3/36 133/2/36 193/2/36 194/3/36
f 123/2/111 124/3/111 132/3/111 131/2/111
f 126/3/112 125/2/112 133/2/112 134/3/112
f 125/2/113 123/2/113 131/2/113 133/2/113
f 137/5/36 136/21/36 135/18/36 138/8/36
f 51/3/114 53/2/114 135/2/114 136/3/114
f 53/18/115 54/8/115 138/8/115 135/18/115
f 52/5/116 51/3/116 136/3/116 137/5/116
f 139/8/117 142/18/117 146/18/117 143/8/117
f 40/9/36 42/8/36 139/8/36 140/9/36
f 42/8/36 41/18/36 142/18/36 139/8/36
f 39/11/36 40/9/36 140/9/36 141/11/36
f 143/8/36 146/18/36 145/22/36 144/9/36
f 141/11/118 140/9/118 144/9/118 145/11/118
f 142/2/119 141/17/119 145/17/119 146/2/119
f 140/9/120 139/8/120 143/8/120 144/9/120
f 150/18/36 148/18/36 152/18/36 154/18/36
f 39/17/121 41/2/121 150/2/121 149/17/121
f 35/11/122 39/11/122 149/11/122 147/11/122
f 37/2/123 35/17/123 147/17/123 148/2/123
f 151/11/124 153/11/124 157/11/124 155/11/124
f 148/2/36 147/17/36 151/17/36 152/2/36
f 147/11/36 149/11/36 153/11/36 151/11/36
f 149/17/36 150/2/36 154/2/36 153/17/36
f 158/18/125 156/18/125 164/18/125 166/18/125
f 154/18/126 158/18/126 162/18/126 160/18/126
f 154/18/127 152/18/127 156/18/127 158/18/127
f 152/2/128 151/17/128 155/17/128 156/2/128
f 159/17/129 160/2/129 162/2/129 161/17/129
f 153/17/130 154/2/130 160/2/130 159/17/130
f 157/11/131 153/11/131 159/11/131 161/11/131
f 158/2/132 157/17/132 161/17/132 162/2/132
f 164/2/133 163/17/133 165/17/133 166/2/133
f 156/2/134 155/17/134 163/17/134 164/2/134
f 155/11/135 157/11/135 165/11/135 163/11/135
f 157/17/136 158/2/136 166/2/136 165/17/136
f 170/5/36 167/5/36 171/5/36 174/5/36
f 76/8/137 74/5/137 170/5/137 169/8/137
f 22/5/138 24/8/138 168/8/138 167/5/138
f 74/5/139 22/5/139 167/5/139 170/5/139
f 173/8/140 174/5/140 178/5/140 177/8/140
f 167/5/36 168/8/36 172/8/36 171/5/36
f 169/8/36 170/5/36 174/5/36 173/8/36
f 168/8/36 169/8/36 173/8/36 172/8/36
f 177/8/141 178/5/141 182/5/141 181/8/141
f 172/8/142 173/8/142 177/8/142 176/8/142
f 174/5/143 171/5/143 175/5/143 178/5/143
f 171/5/144 172/8/144 176/8/144 175/5/144
f 181/8/65 182/5/65 179/5/65 180/8/65
f 176/8/145 177/8/145 181/8/145 180/8/145
f 178/5/146 175/5/146 179/5/146 182/5/146
f 175/5/147 176/8/147 180/8/147 179/5/147
f 184/5/23 183/3/23 186/20/23 185/19/23
f 69/19/148 68/5/148 184/5/148 185/19/148
f 67/3/149 70/20/149 186/20/149 183/3/149
f 68/5/150 67/3/150 183/3/150 184/5/150
f 187/2/151 188/3/151 190/3/151 189/2/151
f 128/3/152 130/3/152 190/3/152 188/3/152
f 130/3/153 129/2/153 189/2/153 190/3/153
f 129/2/154 127/2/154 187/2/154 189/2/154
f 194/3/155 193/2/155 191/2/155 192/3/155
f 133/2/36 131/2/36 191/2/36 193/2/36
f 132/3/36 134/3/36 194/3/36 192/3/36
f 131/2/36 132/3/36 192/3/36 191/2/36
f 203/2/156 205/2/156 209/2/156 206/2/156
f 197/2/18 196/17/18 72/17/18 75/2/18
f 199/2/36 198/17/36 204/17/36 205/2/36
f 198/11/36 196/11/36 202/11/36 204/11/36
f 9/23/36 195/23/36 201/23/36 200/23/36
f 197/2/36 199/2/36 205/2/36 203/2/36
f 196/17/36 197/2/36 203/2/36 202/17/36
f 209/2/157 208/17/157 212/17/157 213/2/157
f 202/17/158 203/2/158 206/2/158 207/17/158
f 205/2/159 204/17/159 208/17/159 209/2/159
f 204/11/160 202/11/160 207/11/160 208/11/160
f 213/2/18 212/17/18 211/17/18 210/2/18
f 208/11/161 207/11/161 211/11/161 212/11/161
f 206/2/162 209/2/162 213/2/162 210/2/162
f 207/17/163 206/2/163 210/2/163 211/17/163
