# Blender 5.0.0
# www.blender.org
mtllib firstBlend.mtl
o Cube
v 0.000565 1.387955 0.081084
v 0.000565 1.706268 0.142583
v 0.000565 1.412307 -0.149706
v 0.000565 1.695412 -0.135906
v 0.174438 1.396722 0.081084
v 0.212825 1.738206 0.142914
v 0.174438 1.421073 -0.149706
v 0.217540 1.699917 -0.135298
v 0.000565 1.111409 0.124410
v 0.000565 1.119323 -0.122716
v 0.223310 1.160926 0.125091
v 0.225419 1.142975 -0.123477
v 0.083349 0.746375 0.095898
v 0.083349 0.746375 -0.038601
v 0.227609 0.758794 0.095898
v 0.227609 0.758794 -0.038601
v 0.157617 0.228199 0.151196
v 0.157617 0.217982 0.069741
v 0.240510 0.228930 0.151196
v 0.240510 0.218713 0.069741
v 0.152669 0.212851 0.149787
v 0.147122 0.176483 0.038146
v 0.249655 0.213229 0.149787
v 0.251506 0.177214 0.038146
v 0.141574 0.151742 0.153662
v 0.161139 0.117111 -0.103913
v 0.253357 0.152825 0.153662
v 0.234071 0.117817 -0.103913
v 0.139026 0.101959 0.151901
v 0.159477 0.108076 -0.108281
v 0.257504 0.103041 0.151901
v 0.236776 0.108783 -0.108281
v 0.000565 1.901618 0.113742
v 0.000565 1.842379 -0.121904
v 0.209037 1.881788 0.086921
v 0.209037 1.887595 -0.088684
v 0.000565 1.903798 -0.088684
v 0.075553 1.918769 0.111118
v 0.075906 1.949744 -0.024078
v 0.000565 1.947744 0.085187
v 0.000565 1.972489 -0.137049
v 0.060415 1.948983 0.069460
v 0.056990 1.996269 -0.128689
v 0.000565 2.052293 0.037432
v 0.000565 2.087051 -0.176088
v 0.077327 2.055473 0.037432
v 0.077327 2.088600 -0.163243
v 0.000565 2.160396 0.082058
v 0.000565 2.180947 -0.161506
v 0.088511 2.150951 0.068260
v 0.067356 2.176083 -0.148882
v 0.000565 2.250972 0.046534
v 0.000565 2.229540 -0.153873
v 0.078046 2.232426 0.026276
v 0.078046 2.214223 -0.143304
v 0.000565 1.409263 -0.095596
v 0.000565 1.701129 -0.088409
v 0.174438 1.418029 -0.095596
v 0.221025 1.728927 -0.083269
v 0.000565 1.113235 -0.001842
v 0.223310 1.163556 0.000033
v 0.083349 0.746375 -0.006104
v 0.227609 0.758794 -0.006104
v 0.157617 0.224620 0.105649
v 0.240510 0.225350 0.105649
v 0.143902 0.192382 0.107171
v 0.258422 0.192829 0.107171
v 0.139026 0.101959 0.062075
v 0.257504 0.103041 0.062075
v 0.000565 1.881950 -0.074085
v 0.254361 1.912360 -0.040312
v 0.000565 1.914225 -0.006104
v 0.075553 1.931960 -0.005089
v 0.000565 1.998456 -0.054461
v 0.062345 2.001208 -0.054595
v 0.000565 2.121874 -0.038373
v 0.113027 2.126745 -0.038373
v 0.000565 2.190342 -0.044128
v 0.111369 2.178549 -0.044128
v 0.000565 2.275634 -0.056752
v 0.078046 2.254739 -0.051468
v 0.000565 1.969939 -0.082852
v 0.228165 0.743561 0.098282
v 0.086553 0.731626 0.098284
v 0.086492 0.724008 -0.034015
v 0.086532 0.724013 -0.001314
v 0.228124 0.744843 -0.034276
v 0.228138 0.744527 -0.001520
v 0.317338 1.750468 0.105042
v 0.263263 1.541133 0.107053
v 0.275416 1.874909 0.086921
v 0.257792 1.520282 0.014213
v 0.316738 1.749724 -0.052751
v 0.270850 1.868708 -0.007160
v 0.354105 1.561811 0.130988
v 0.353505 1.526352 0.025795
v 0.344955 1.173993 -0.022496
v 0.353155 1.194375 -0.086531
v 0.380556 1.182587 -0.021651
v 0.379956 1.197799 -0.075647
v 0.347645 1.148012 -0.024370
v 0.355845 1.165123 -0.136240
v 0.383246 1.142655 -0.024370
v 0.382647 1.152482 -0.114365
v 0.352449 1.080478 -0.033481
v 0.358121 1.131157 -0.154961
v 0.381849 1.078544 -0.033481
v 0.385768 1.122321 -0.132945
v 0.350420 1.066981 -0.037396
v 0.352647 1.071447 -0.131271
v 0.373386 1.044456 -0.048475
v 0.372903 1.062273 -0.126527
v 0.382600 1.103685 -0.135259
v 0.350167 1.071988 -0.146491
v 0.303133 1.021666 -0.069261
v 0.312943 1.021081 -0.151138
v 0.312725 1.007357 -0.067192
v 0.320289 1.011752 -0.148661
v 0.303133 1.021666 -0.069261
v 0.312943 1.021081 -0.151138
v 0.354865 1.106935 -0.151494
v 0.358712 1.069992 -0.169862
v 0.372000 1.068803 -0.156425
v 0.370478 1.068409 -0.156519
v 0.357147 1.068340 -0.169623
v 0.373145 1.053365 -0.087501
v 0.312030 1.001679 -0.106366
v 0.303561 1.013499 -0.108640
v 0.308038 1.021374 -0.110200
v 0.350293 1.069484 -0.091943
v -0.173307 1.396722 0.081084
v -0.211694 1.738206 0.142914
v -0.173307 1.421073 -0.149706
v -0.216409 1.699917 -0.135298
v -0.222179 1.160926 0.125091
v -0.224288 1.142975 -0.123477
v -0.082218 0.746375 0.095898
v -0.082218 0.746375 -0.038601
v -0.226478 0.758794 0.095898
v -0.226478 0.758794 -0.038601
v -0.156486 0.228199 0.151196
v -0.156486 0.217982 0.069741
v -0.239380 0.228930 0.151196
v -0.239380 0.218713 0.069741
v -0.151538 0.212851 0.149787
v -0.145991 0.176483 0.038146
v -0.248524 0.213229 0.149787
v -0.250376 0.177214 0.038146
v -0.140444 0.151742 0.153662
v -0.160008 0.117111 -0.103913
v -0.252227 0.152825 0.153662
v -0.232940 0.117817 -0.103913
v -0.137896 0.101959 0.151901
v -0.158346 0.108076 -0.108281
v -0.256373 0.103041 0.151901
v -0.235645 0.108783 -0.108281
v -0.207907 1.881788 0.086921
v -0.207907 1.887595 -0.088684
v -0.074423 1.918769 0.111118
v -0.074775 1.949744 -0.024078
v -0.059284 1.948983 0.069460
v -0.055859 1.996269 -0.128689
v -0.076196 2.055473 0.037432
v -0.076196 2.088600 -0.163243
v -0.087380 2.150951 0.068260
v -0.066225 2.176083 -0.148882
v -0.076915 2.232426 0.026276
v -0.076915 2.214223 -0.143304
v -0.173307 1.418029 -0.095596
v -0.219894 1.728927 -0.083269
v -0.222179 1.163556 0.000033
v -0.082218 0.746375 -0.006104
v -0.226478 0.758794 -0.006104
v -0.156486 0.224620 0.105649
v -0.239380 0.225350 0.105649
v -0.142771 0.192382 0.107171
v -0.257292 0.192829 0.107171
v -0.137896 0.101959 0.062075
v -0.256373 0.103041 0.062075
v -0.253231 1.912360 -0.040312
v -0.074423 1.931960 -0.005089
v -0.061215 2.001208 -0.054595
v -0.111897 2.126745 -0.038373
v -0.110238 2.178549 -0.044128
v -0.076915 2.254739 -0.051468
v -0.227034 0.743561 0.098282
v -0.085423 0.731626 0.098284
v -0.085362 0.724008 -0.034015
v -0.085401 0.724013 -0.001314
v -0.226993 0.744843 -0.034276
v -0.227007 0.744527 -0.001520
v -0.316207 1.750468 0.105042
v -0.262132 1.541133 0.107053
v -0.274285 1.874909 0.086921
v -0.256661 1.520282 0.014213
v -0.315608 1.749724 -0.052751
v -0.269719 1.868708 -0.007160
v -0.352974 1.561811 0.130988
v -0.352375 1.526352 0.025795
v -0.343824 1.173993 -0.022496
v -0.352024 1.194375 -0.086531
v -0.379425 1.182587 -0.021651
v -0.378826 1.197799 -0.075647
v -0.346514 1.148012 -0.024370
v -0.354715 1.165123 -0.136240
v -0.382115 1.142655 -0.024370
v -0.381516 1.152482 -0.114365
v -0.351318 1.080478 -0.033481
v -0.356990 1.131157 -0.154961
v -0.380718 1.078544 -0.033481
v -0.384637 1.122321 -0.132945
v -0.349289 1.066981 -0.037396
v -0.351517 1.071447 -0.131271
v -0.372256 1.044456 -0.048475
v -0.371772 1.062273 -0.126527
v -0.381469 1.103685 -0.135259
v -0.349036 1.071988 -0.146491
v -0.302003 1.021666 -0.069261
v -0.311812 1.021081 -0.151138
v -0.311594 1.007357 -0.067192
v -0.319159 1.011752 -0.148661
v -0.302003 1.021666 -0.069261
v -0.311812 1.021081 -0.151138
v -0.353734 1.106935 -0.151494
v -0.357581 1.069992 -0.169862
v -0.370870 1.068803 -0.156425
v -0.369347 1.068409 -0.156519
v -0.356016 1.068340 -0.169623
v -0.372014 1.053365 -0.087501
v -0.310900 1.001679 -0.106366
v -0.302431 1.013499 -0.108640
v -0.306907 1.021374 -0.110200
v -0.349163 1.069484 -0.091943
vn -1.0000 -0.0000 -0.0000
vn -0.0001 0.0501 -0.9987
vn 0.9913 -0.1310 0.0163
vn 0.0186 -0.1848 0.9826
vn 0.9797 0.1998 0.0159
vn 0.0571 0.1793 -0.9821
vn 0.9999 0.0106 0.0001
vn -0.0260 0.1656 0.9859
vn 0.0056 -0.0923 -0.9957
vn -0.0132 0.1555 0.9877
vn -0.9756 -0.2193 -0.0087
vn 0.0106 -0.0738 0.9972
vn 0.0191 -0.2158 -0.9763
vn -0.0047 0.6057 -0.7957
vn 0.0265 -0.2357 -0.9715
vn 0.9993 0.0368 -0.0000
vn -0.9902 -0.1399 0.0006
vn 0.9961 -0.0778 0.0416
vn 0.8712 0.4887 -0.0463
vn -0.9318 0.3481 -0.1033
vn 0.0006 -0.0903 0.9959
vn 0.0003 -0.0354 0.9994
vn -0.0004 0.0637 0.9980
vn -0.0075 0.9226 -0.3856
vn 0.0091 -1.0000 -0.0000
vn -0.0041 0.4350 -0.9004
vn 0.9967 0.0817 0.0007
vn -0.9885 0.0865 -0.1238
vn 0.1808 0.9586 -0.2200
vn 0.0540 0.2430 0.9685
vn 0.0076 0.6778 0.7353
vn 0.0967 -0.2765 0.9561
vn 0.0507 0.6529 -0.7557
vn 0.9401 -0.3170 -0.1253
vn 0.5955 -0.0987 -0.7973
vn 0.7587 0.4684 0.4527
vn 0.9345 0.0992 -0.3419
vn 0.0963 0.3452 0.9336
vn 0.2113 -0.3459 -0.9141
vn 0.9498 0.1841 -0.2529
vn 0.0650 -0.3499 0.9345
vn 0.1760 0.1645 -0.9705
vn 0.2612 0.9343 0.2424
vn 0.2500 0.4103 0.8770
vn 0.1748 0.1272 -0.9764
vn 0.2471 0.8809 -0.4037
vn 0.9276 0.3187 0.1952
vn 0.9639 -0.1041 0.2452
vn 0.9266 0.3610 0.1057
vn 0.9602 -0.2792 0.0083
vn 0.2130 0.9540 0.2111
vn -0.9965 0.0823 -0.0170
vn 0.9885 0.0721 -0.1331
vn 0.0091 -0.9994 -0.0348
vn -0.9963 0.0828 0.0225
vn -0.9309 0.3651 -0.0070
vn 0.8998 0.4109 -0.1465
vn -0.9857 -0.1684 0.0065
vn 0.9993 0.0370 -0.0000
vn -0.9754 -0.2206 -0.0018
vn 0.9999 0.0094 0.0123
vn 0.9831 0.1829 -0.0064
vn 0.9886 -0.1505 0.0044
vn 0.4224 -0.9064 -0.0008
vn -0.0058 0.1029 0.9947
vn 0.0177 -0.1959 -0.9805
vn -0.9903 -0.1386 0.0108
vn 0.9997 0.0232 -0.0023
vn 0.9997 0.0238 -0.0006
vn -0.9904 -0.1372 0.0138
vn 0.0727 -0.0092 0.9973
vn -0.9780 -0.2085 0.0113
vn 0.8871 0.0514 -0.4588
vn 0.1981 0.2925 0.9355
vn 0.9853 0.1688 -0.0277
vn 0.4585 0.8702 0.1803
vn 0.5161 0.2604 -0.8160
vn 0.9392 0.3420 -0.0287
vn -0.0972 -0.3643 0.9262
vn 0.2467 -0.3294 -0.9114
vn -0.0087 -0.0702 0.9975
vn 0.9966 0.0809 -0.0178
vn -0.9700 -0.2424 -0.0161
vn 0.1473 0.3169 -0.9370
vn -0.9961 -0.0493 -0.0735
vn -0.9955 -0.0086 -0.0946
vn 0.4591 0.6927 -0.5562
vn 0.9981 0.0618 0.0024
vn 0.9754 -0.2151 -0.0490
vn 0.6645 0.4168 -0.6203
vn 0.9997 0.0121 0.0210
vn -0.0154 -0.1375 0.9904
vn -0.8044 0.5744 0.1515
vn 0.0218 -0.3733 0.9274
vn -0.9948 0.1017 -0.0026
vn 0.6685 0.1658 -0.7250
vn -0.1547 -0.3616 0.9194
vn -0.7371 -0.6144 -0.2813
vn 0.8733 -0.4751 0.1080
vn 0.3161 0.1034 -0.9431
vn -0.0000 1.0000 -0.0000
vn 0.7165 -0.6973 0.0197
vn 0.5967 -0.8014 -0.0403
vn 0.4633 -0.7347 -0.4956
vn 0.2876 -0.3762 -0.8808
vn 0.9677 -0.2239 -0.1155
vn -0.9052 0.1099 -0.4105
vn -0.5658 -0.3280 0.7565
vn 0.6849 -0.7216 -0.1009
vn 0.7769 -0.6292 0.0243
vn -0.8262 -0.5544 0.1005
vn 0.0001 0.0501 -0.9987
vn -0.9913 -0.1310 0.0163
vn -0.0186 -0.1848 0.9826
vn -0.9797 0.1998 0.0159
vn -0.0571 0.1793 -0.9821
vn -0.9999 0.0106 0.0001
vn 0.0260 0.1656 0.9859
vn -0.0056 -0.0923 -0.9957
vn 0.0132 0.1555 0.9877
vn 0.9756 -0.2193 -0.0087
vn -0.0106 -0.0738 0.9972
vn -0.0191 -0.2158 -0.9763
vn 0.0047 0.6057 -0.7957
vn -0.0265 -0.2357 -0.9715
vn -0.9993 0.0368 -0.0000
vn 0.9902 -0.1399 0.0006
vn -0.9961 -0.0778 0.0416
vn -0.8712 0.4887 -0.0463
vn 0.9318 0.3481 -0.1033
vn -0.0006 -0.0903 0.9959
vn -0.0003 -0.0354 0.9994
vn 0.0004 0.0637 0.9980
vn 0.0075 0.9226 -0.3856
vn -0.0091 -1.0000 -0.0000
vn 0.0041 0.4350 -0.9004
vn -0.9967 0.0817 0.0007
vn 0.9885 0.0865 -0.1238
vn -0.1808 0.9586 -0.2200
vn -0.0540 0.2430 0.9685
vn -0.0076 0.6778 0.7352
vn -0.0967 -0.2765 0.9561
vn -0.0507 0.6529 -0.7557
vn -0.9401 -0.3170 -0.1253
vn -0.5955 -0.0987 -0.7973
vn -0.7587 0.4684 0.4527
vn -0.9345 0.0992 -0.3419
vn -0.0963 0.3452 0.9336
vn -0.2113 -0.3459 -0.9141
vn -0.9498 0.1841 -0.2529
vn -0.0650 -0.3499 0.9345
vn -0.1760 0.1645 -0.9705
vn -0.2612 0.9343 0.2424
vn -0.2500 0.4103 0.8770
vn -0.1748 0.1272 -0.9764
vn -0.2471 0.8809 -0.4037
vn -0.9276 0.3187 0.1952
vn -0.9639 -0.1041 0.2452
vn -0.9266 0.3610 0.1057
vn -0.9602 -0.2792 0.0083
vn -0.2130 0.9540 0.2111
vn 0.9965 0.0823 -0.0170
vn -0.9885 0.0721 -0.1331
vn -0.0091 -0.9994 -0.0348
vn 0.9963 0.0828 0.0225
vn 0.9309 0.3651 -0.0070
vn -0.8998 0.4109 -0.1465
vn 0.9857 -0.1684 0.0065
vn -0.9993 0.0370 -0.0000
vn 0.9754 -0.2206 -0.0018
vn -0.9999 0.0094 0.0123
vn -0.9831 0.1829 -0.0064
vn -0.9886 -0.1505 0.0044
vn -0.4224 -0.9064 -0.0008
vn 0.0058 0.1029 0.9947
vn -0.0177 -0.1959 -0.9805
vn 0.9903 -0.1386 0.0108
vn -0.9997 0.0232 -0.0023
vn -0.9997 0.0238 -0.0006
vn 0.9904 -0.1372 0.0138
vn -0.0727 -0.0092 0.9973
vn 0.9780 -0.2085 0.0113
vn -0.8871 0.0514 -0.4588
vn -0.1981 0.2925 0.9355
vn -0.9853 0.1688 -0.0277
vn -0.4585 0.8702 0.1803
vn -0.5161 0.2604 -0.8160
vn -0.9392 0.3420 -0.0287
vn 0.0972 -0.3643 0.9262
vn -0.2467 -0.3294 -0.9114
vn 0.0087 -0.0702 0.9975
vn -0.9966 0.0809 -0.0178
vn 0.9700 -0.2424 -0.0161
vn -0.1473 0.3169 -0.9370
vn 0.9961 -0.0493 -0.0735
vn 0.9955 -0.0086 -0.0946
vn -0.4591 0.6927 -0.5562
vn -0.9981 0.0618 0.0024
vn -0.9754 -0.2151 -0.0490
vn -0.6645 0.4168 -0.6203
vn -0.9997 0.0121 0.0210
vn 0.0154 -0.1375 0.9904
vn 0.8044 0.5744 0.1515
vn -0.0218 -0.3733 0.9274
vn 0.9948 0.1017 -0.0026
vn -0.6685 0.1658 -0.7250
vn 0.1547 -0.3616 0.9194
vn 0.7371 -0.6144 -0.2813
vn -0.8733 -0.4751 0.1080
vn -0.3161 0.1034 -0.9431
vn -0.7165 -0.6973 0.0197
vn -0.5967 -0.8014 -0.0403
vn -0.4633 -0.7347 -0.4956
vn -0.2876 -0.3762 -0.8808
vn -0.9677 -0.2239 -0.1155
vn 0.9052 0.1099 -0.4105
vn 0.5658 -0.3280 0.7565
vn -0.6849 -0.7216 -0.1009
vn -0.7769 -0.6292 0.0243
vn 0.8262 -0.5544 0.1005
vt 0.375000 0.125000
vt 0.625000 0.125000
vt 0.625000 0.250000
vt 0.375000 0.250000
vt 0.625000 0.500000
vt 0.375000 0.500000
vt 0.375000 0.625000
vt 0.625000 0.625000
vt 0.625000 0.750000
vt 0.375000 0.750000
vt 0.625000 1.000000
vt 0.375000 1.000000
vt 0.375000 0.625000
vt 0.375000 0.125000
vt 0.125000 0.625000
vt 0.125000 0.750000
vt 0.625000 0.000000
vt 0.875000 0.625000
vt 0.875000 0.750000
vt 0.875000 0.500000
vt 0.375000 0.000000
vt 0.125000 0.500000
vt 0.625000 0.687500
vt 0.000000 0.000000
s 0
usemtl Base
f 18/4/14 20/6/14 24/6/14 22/4/14
f 67/7/18 23/10/18 27/10/18 24/7/18
f 64/14/20 18/4/20 22/4/20 66/14/20
f 27/10/22 25/12/22 29/12/22 31/10/22
f 23/10/23 21/12/23 25/12/23 27/10/23
f 22/4/24 24/6/24 28/6/24 26/4/24
f 68/15/25 69/7/25 31/10/25 29/16/25
f 26/4/26 28/6/26 32/6/26 30/4/26
f 24/7/27 27/10/27 31/10/27 69/7/27
f 22/14/28 26/4/28 30/4/28 68/14/28
f 75/8/34 43/5/34 47/5/34 77/8/34
f 39/5/35 37/3/35 82/3/35 75/5/35
f 73/8/36 39/5/36 75/8/36
f 72/2/1 33/17/1 40/17/1 74/2/1
f 77/8/37 47/5/37 51/5/37 79/8/37
f 74/2/1 40/17/1 44/17/1 76/2/1
f 40/11/38 42/9/38 46/9/38 44/11/38
f 43/5/39 41/3/39 45/3/39 47/5/39
f 79/8/40 51/5/40 55/5/40 81/8/40
f 76/2/1 44/17/1 48/17/1 78/2/1
f 44/11/41 46/9/41 50/9/41 48/11/41
f 47/5/42 45/3/42 49/3/42 51/5/42
f 81/8/43 80/18/43 52/19/43 54/9/43
f 78/2/1 48/17/1 52/17/1 80/2/1
f 48/11/44 50/9/44 54/9/44 52/11/44
f 51/5/45 49/3/45 53/3/45 55/5/45
f 49/3/1 78/2/1 80/2/1 53/3/1
f 55/5/46 53/20/46 80/18/46 81/8/46
f 45/3/1 76/2/1 78/2/1 49/3/1
f 50/9/47 79/8/47 81/8/47 54/9/47
f 41/3/1 74/2/1 76/2/1 45/3/1
f 46/9/48 77/8/48 79/8/48 50/9/48
f 37/3/1 72/2/1 74/2/1 82/3/1
f 38/9/49 73/8/49 75/8/49 42/9/49
f 42/9/50 75/8/50 77/8/50 46/9/50
f 25/21/52 22/14/52 68/14/52 29/21/52
f 28/6/53 24/7/53 69/7/53 32/6/53
f 30/22/54 32/6/54 69/7/54 68/15/54
f 21/21/55 66/14/55 22/14/55 25/21/55
f 17/21/56 64/14/56 66/14/56 21/21/56
f 20/6/57 65/7/57 67/7/57 24/6/57
f 75/5/64 82/3/64 41/3/64 43/5/64
f 82/3/1 74/2/1 41/3/1
f 89/9/71 6/9/71 90/9/71 95/9/71
f 6/9/72 59/8/72 92/8/72 90/9/72
f 93/8/75 89/9/75 95/9/75 96/8/75
f 95/9/79 90/9/79 97/9/79 99/9/79
f 59/5/80 93/8/80 96/8/80 92/5/80
f 99/9/81 97/9/81 101/9/81 103/9/81
f 96/8/82 95/9/82 99/9/82 100/8/82
f 90/9/83 92/8/83 98/8/83 97/9/83
f 92/5/84 96/8/84 100/8/84 98/5/84
f 101/9/85 102/8/85 106/8/85 105/9/85
f 97/9/86 98/8/86 102/8/86 101/9/86
f 98/5/87 100/8/87 104/8/87 102/5/87
f 100/8/88 99/9/88 103/9/88 104/8/88
f 108/8/89 107/9/89 111/9/89 126/23/89 112/8/89 113/8/89
f 102/5/90 104/8/90 108/8/90 106/5/90
f 104/8/91 103/9/91 107/9/91 108/8/91
f 103/9/92 101/9/92 105/9/92 107/9/92
f 110/24/93 114/24/93 120/24/93 116/24/93
f 107/9/94 105/9/94 109/9/94 111/9/94
f 105/9/95 106/8/95 121/8/95 110/8/95 109/9/95
f 106/5/96 108/8/96 123/8/96 122/5/96
f 111/9/97 109/9/97 115/9/97 117/9/97
f 128/23/98 116/8/98 118/8/98 127/23/98
f 128/24/99 116/24/99 120/24/99 129/24/99
f 110/5/100 112/8/100 118/8/100 116/5/100
f 109/24/101 115/24/101 119/24/101
f 130/24/102 109/24/102 119/24/102 129/24/102
f 126/23/103 111/9/103 117/9/103 127/23/103
f 122/5/104 123/8/104 124/8/104 125/5/104
f 121/5/105 113/8/105 112/8/105 110/5/105
f 108/8/106 113/8/106 124/8/106 123/8/106
f 121/8/107 106/8/107 122/8/107 125/8/107
f 113/8/108 121/5/108 125/5/108 124/8/108
f 112/8/109 126/23/109 127/23/109 118/8/109
f 114/24/110 130/24/110 129/24/110 120/24/110
f 115/9/99 128/23/99 129/23/99 119/9/99
f 115/9/111 128/23/111 127/23/111 117/9/111
f 142/4/124 146/4/124 148/6/124 144/6/124
f 177/7/128 148/7/128 151/10/128 147/10/128
f 175/7/129 177/7/129 147/10/129 143/10/129
f 174/14/130 176/14/130 146/4/130 142/4/130
f 151/10/132 155/10/132 153/12/132 149/12/132
f 147/10/133 151/10/133 149/12/133 145/12/133
f 146/4/134 150/4/134 152/6/134 148/6/134
f 178/15/135 153/16/135 155/10/135 179/7/135
f 150/4/136 154/4/136 156/6/136 152/6/136
f 148/7/137 179/7/137 155/10/137 151/10/137
f 146/14/138 178/14/138 154/4/138 150/4/138
f 182/8/144 183/8/144 164/5/144 162/5/144
f 160/5/145 182/5/145 82/3/145 37/3/145
f 181/8/146 182/8/146 160/5/146
f 183/8/147 184/8/147 166/5/147 164/5/147
f 40/11/148 44/11/148 163/9/148 161/9/148
f 162/5/149 164/5/149 45/3/149 41/3/149
f 184/8/150 185/8/150 168/5/150 166/5/150
f 44/11/151 48/11/151 165/9/151 163/9/151
f 164/5/152 166/5/152 49/3/152 45/3/152
f 185/8/153 167/9/153 52/19/153 80/18/153
f 48/11/154 52/11/154 167/9/154 165/9/154
f 166/5/155 168/5/155 53/3/155 49/3/155
f 168/5/156 185/8/156 80/18/156 53/20/156
f 165/9/157 167/9/157 185/8/157 184/8/157
f 163/9/158 165/9/158 184/8/158 183/8/158
f 159/9/159 161/9/159 182/8/159 181/8/159
f 161/9/160 163/9/160 183/8/160 182/8/160
f 149/21/162 153/21/162 178/14/162 146/14/162
f 152/6/163 156/6/163 179/7/163 148/7/163
f 154/22/164 178/15/164 179/7/164 156/6/164
f 145/21/165 149/21/165 146/14/165 176/14/165
f 144/6/167 148/6/167 177/7/167 175/7/167
f 182/5/174 162/5/174 41/3/174 82/3/174
f 192/9/181 198/9/181 193/9/181 132/9/181
f 132/9/182 193/9/182 195/8/182 170/8/182
f 196/8/185 199/8/185 198/9/185 192/9/185
f 198/9/189 202/9/189 200/9/189 193/9/189
f 170/5/190 195/5/190 199/8/190 196/8/190
f 202/9/191 206/9/191 204/9/191 200/9/191
f 199/8/192 203/8/192 202/9/192 198/9/192
f 193/9/193 200/9/193 201/8/193 195/8/193
f 195/5/194 201/5/194 203/8/194 199/8/194
f 204/9/195 208/9/195 209/8/195 205/8/195
f 200/9/196 204/9/196 205/8/196 201/8/196
f 201/5/197 205/5/197 207/8/197 203/8/197
f 203/8/198 207/8/198 206/9/198 202/9/198
f 211/8/199 216/8/199 215/8/199 229/23/199 214/9/199 210/9/199
f 205/5/200 209/5/200 211/8/200 207/8/200
f 207/8/201 211/8/201 210/9/201 206/9/201
f 206/9/202 210/9/202 208/9/202 204/9/202
f 213/24/203 219/24/203 223/24/203 217/24/203
f 210/9/204 214/9/204 212/9/204 208/9/204
f 208/9/205 212/9/205 213/8/205 224/8/205 209/8/205
f 209/5/206 225/5/206 226/8/206 211/8/206
f 214/9/207 220/9/207 218/9/207 212/9/207
f 231/23/208 230/23/208 221/8/208 219/8/208
f 231/24/209 232/24/209 223/24/209 219/24/209
f 213/5/210 219/5/210 221/8/210 215/8/210
f 212/24/101 222/24/101 218/24/101
f 233/24/211 232/24/211 222/24/211 212/24/211
f 229/23/212 230/23/212 220/9/212 214/9/212
f 225/5/213 228/5/213 227/8/213 226/8/213
f 224/5/214 213/5/214 215/8/214 216/8/214
f 211/8/215 226/8/215 227/8/215 216/8/215
f 224/8/216 228/8/216 225/8/216 209/8/216
f 216/8/217 227/8/217 228/5/217 224/5/217
f 215/8/218 221/8/218 230/23/218 229/23/218
f 217/24/219 223/24/219 232/24/219 233/24/219
f 218/9/209 222/9/209 232/23/209 231/23/209
f 218/9/220 220/9/220 230/23/220 231/23/220
usemtl Material
f 56/1/1 57/2/1 4/3/1 3/4/1
f 3/4/2 4/3/2 8/5/2 7/6/2
f 58/7/3 59/8/3 6/9/3 5/10/3
f 5/10/4 6/9/4 2/11/4 1/12/4
f 58/7/5 5/10/5 11/10/5 61/13/5
f 8/5/6 4/3/6 34/3/6 36/5/6
f 61/13/7 11/10/7 15/10/7 63/13/7
f 5/10/8 1/12/8 9/12/8 11/10/8
f 3/4/9 7/6/9 12/6/9 10/4/9
f 56/1/1 3/4/1 10/4/1 60/14/1
f 15/10/10 13/12/10 84/12/10 83/10/10
f 60/14/11 10/4/11 14/4/11 62/14/11
f 11/10/12 9/12/12 13/12/12 15/10/12
f 10/4/13 12/6/13 16/6/13 14/4/13
f 14/4/15 16/6/15 87/6/15 85/4/15
f 63/13/16 15/10/16 83/10/16 88/13/16
f 62/14/17 14/4/17 85/4/17 86/14/17
f 65/7/19 19/10/19 23/10/19 67/7/19
f 19/10/21 17/12/21 21/12/21 23/10/21
f 71/8/29 36/5/29 39/5/29 73/8/29
f 57/2/1 2/17/1 33/17/1 70/2/1
f 2/11/30 6/9/30 35/9/30 33/11/30
f 33/11/31 38/9/31 42/9/31 40/11/31
f 70/2/1 33/17/1 72/2/1
f 33/11/32 35/9/32 38/9/32
f 36/5/33 34/3/33 37/3/33 39/5/33
f 34/3/1 70/2/1 72/2/1 37/3/1
f 4/3/1 57/2/1 70/2/1 34/3/1
f 35/9/51 71/8/51 73/8/51 38/9/51
f 13/21/58 62/14/58 86/14/58 84/21/58
f 16/6/59 63/13/59 88/13/59 87/6/59
f 9/21/60 60/14/60 62/14/60 13/21/60
f 1/21/1 56/1/1 60/14/1 9/21/1
f 12/6/61 61/13/61 63/13/61 16/6/61
f 7/6/62 58/7/62 61/13/62 12/6/62
f 7/6/63 8/5/63 59/8/63 58/7/63
f 1/21/1 2/17/1 57/2/1 56/1/1
f 83/10/65 84/12/65 17/12/65 19/10/65
f 85/4/66 87/6/66 20/6/66 18/4/66
f 84/21/67 86/14/67 64/14/67 17/21/67
f 87/6/68 88/13/68 65/7/68 20/6/68
f 88/13/69 83/10/69 19/10/69 65/7/69
f 86/14/70 85/4/70 18/4/70 64/14/70
f 8/5/73 36/5/73 71/5/73 59/5/73
f 35/9/74 6/9/74 89/9/74 91/9/74
f 71/8/76 35/9/76 91/9/76 94/8/76
f 71/5/77 94/8/77 93/8/77 59/5/77
f 94/8/78 91/9/78 89/9/78 93/8/78
f 3/4/112 133/6/112 134/5/112 4/3/112
f 169/7/113 131/10/113 132/9/113 170/8/113
f 131/10/114 1/12/114 2/11/114 132/9/114
f 169/7/115 171/13/115 135/10/115 131/10/115
f 134/5/116 158/5/116 34/3/116 4/3/116
f 171/13/117 173/13/117 139/10/117 135/10/117
f 131/10/118 135/10/118 9/12/118 1/12/118
f 3/4/119 10/4/119 136/6/119 133/6/119
f 139/10/120 186/10/120 187/12/120 137/12/120
f 60/14/121 172/14/121 138/4/121 10/4/121
f 135/10/122 139/10/122 137/12/122 9/12/122
f 10/4/123 138/4/123 140/6/123 136/6/123
f 138/4/125 188/4/125 190/6/125 140/6/125
f 173/13/126 191/13/126 186/10/126 139/10/126
f 172/14/127 189/14/127 188/4/127 138/4/127
f 143/10/131 147/10/131 145/12/131 141/12/131
f 180/8/139 181/8/139 160/5/139 158/5/139
f 2/11/140 33/11/140 157/9/140 132/9/140
f 33/11/141 40/11/141 161/9/141 159/9/141
f 33/11/142 159/9/142 157/9/142
f 158/5/143 160/5/143 37/3/143 34/3/143
f 157/9/161 159/9/161 181/8/161 180/8/161
f 141/21/166 145/21/166 176/14/166 174/14/166
f 137/21/168 187/21/168 189/14/168 172/14/168
f 140/6/169 190/6/169 191/13/169 173/13/169
f 9/21/170 137/21/170 172/14/170 60/14/170
f 136/6/171 140/6/171 173/13/171 171/13/171
f 133/6/172 136/6/172 171/13/172 169/7/172
f 133/6/173 169/7/173 170/8/173 134/5/173
f 186/10/175 143/10/175 141/12/175 187/12/175
f 188/4/176 142/4/176 144/6/176 190/6/176
f 187/21/177 141/21/177 174/14/177 189/14/177
f 190/6/178 144/6/178 175/7/178 191/13/178
f 191/13/179 175/7/179 143/10/179 186/10/179
f 189/14/180 174/14/180 142/4/180 188/4/180
f 134/5/183 170/5/183 180/5/183 158/5/183
f 157/9/184 194/9/184 192/9/184 132/9/184
f 180/8/186 197/8/186 194/9/186 157/9/186
f 180/5/187 170/5/187 196/8/187 197/8/187
f 197/8/188 196/8/188 192/9/188 194/9/188
